<?xml version="1.0" encoding="UTF-8" standalone="no"?><!DOCTYPE svg PUBLIC "-//W3C//DTD SVG 1.1//EN" "http://www.w3.org/Graphics/SVG/1.1/DTD/svg11.dtd"><svg width="100%" height="100%" viewBox="0 0 425 214" version="1.1" xmlns="http://www.w3.org/2000/svg" xmlns:xlink="http://www.w3.org/1999/xlink" xml:space="preserve" xmlns:serif="http://www.serif.com/" style="fill-rule:evenodd;clip-rule:evenodd;stroke-linejoin:round;stroke-miterlimit:2;"><g><path d="M416.564,213.724l0,-172.176l2.848,0l-0.143,-0.221l0.003,0l-0.314,-0.486l-0.001,-0.003l-2.036,-3.161l0.003,0l-0.292,-0.455l-0.003,0.004l-0.583,-0.908l-0.174,0l0.003,-0.006l-0.55,0l-0.004,0.006l-2.127,0l-0.001,-0.006l-0.553,0l0.002,0.006l-1.745,0l0.005,-0.006l-0.553,0l0,0.006l-2.132,0l-0.003,-0.006l-0.547,0l0.004,0.006l-1.745,0l0,-0.006l-0.551,0l-0.003,0.006l-2.127,0l-0.002,-0.006l-0.548,0l0,0.006l-1.743,0l0.003,-0.006l-0.552,0l-0.002,0.006l-2.125,0l-0.003,-0.006l-0.553,0l0.005,0.006l-1.747,0l0.002,-0.006l-0.546,0l-0.008,0.006l-2.121,0l-0.002,-0.006l-0.552,0l0.004,0.006l-1.676,0l0,-20.399l0,-1.568l0.425,0.262l0.005,0l1.493,0.916l0.028,-0.071l0.211,-0.48l-0.003,-0.004l1.002,-2.346l-0.171,-0.111l0.006,0.002l-0.793,-0.506l0.002,0.004l-1.8,-1.152l-0.198,-0.125l-0.857,-0.551l-0.385,-0.244l-4.106,-2.623l-0.198,-0.131l-0.593,-0.377l-0.191,-0.123l-2.641,-1.688l-0.326,-0.209l-1.151,-0.737l-0.303,-0.191l-3.958,-2.532l-0.234,-0.151l-1.074,-0.685l-0.769,-0.49l0,-0.002l-0.001,0.002l-0.005,-0.008l-0.007,0.019l-0.927,0.594l-0.236,0.15l0,0.002l-0.901,0.577l-0.243,0.152l0.003,0l-4.067,2.6l-0.054,0.034l-3.939,2.516l-0.288,0.185l-0.598,0.381l-0.018,0.015l-4.628,2.954l-0.043,0.029l0.001,0l-2.923,1.868l0.005,-0.004l-0.369,0.235l-0.506,0.325l0.47,1.098l0.004,0.015l0.514,1.203l0.205,0.486l0.045,0.1l1.651,-1.008l0.256,-0.158l0,-0.002l0.013,-0.009l0,21.961l-1.703,0l0.002,-0.006l-0.554,0l-0.002,0.006l-2.121,0l-0.002,-0.006l-0.553,0l0.004,0.006l-1.745,0l0.007,-0.006l-0.554,0l-0.003,0.006l-2.124,0l-0.002,-0.006l-0.547,0l0,0.006l-1.743,0l0.002,-0.006l-0.552,0l-0.005,0.006l-2.119,0l-0.007,-0.006l-0.547,0l0.002,0.006l-1.742,0l0,-0.006l-0.547,0l-0.004,0.006l-2.124,0l-0.004,-0.006l-0.548,0l0.004,0.006l-1.745,0l0.006,-0.006l-0.557,0l-0.004,0.006l-2.119,0l-0.004,-0.006l-0.552,0l0.004,0.006l-0.161,0l-0.546,0.853l0,-11.705l0,-1.353l2.597,1.02l1.67,-2.511l-26.655,-10.905l-0.001,0l-0.009,-0.005l-0.008,0.018l-9.309,3.804l0,-3.617l0,-0.795l0.673,0l0,-2.195l-10.731,0l0,2.195l0.675,0l0,8.25l-7.953,3.254l1.669,2.507l2.599,-1.018l0,11.469l-10.679,0l0,2.48l0.767,0l0,1.851l-9.046,-7.621l-0.014,-0.019l-0.005,0.006l-0.004,0l-18.97,15.988l0,-14.261l0,-1.53l3.865,0l-0.425,-0.679l0,-0.001l-0.146,-0.237l-0.004,0.004l-0.272,-0.439l-0.161,-0.254l-0.302,-0.482l0,-0.003l-0.151,-0.238l-0.602,-0.96l0.005,0.004l-0.744,-1.186l-0.344,-0.541l-0.711,0l0,-0.004l-0.343,0l0,0.004l-1.145,0l0,-0.004l-0.341,0l0,0.004l-1.275,0l0.003,-0.004l-0.343,0l-0.003,0.004l-1.142,0l0,-0.004l-0.347,0l0.003,0.004l-1.275,0l0,-0.004l-0.344,0l0,0.004l-1.147,0l0,-0.004l-0.341,0l0.003,0.004l-1.276,0l0,-0.004l-0.34,0l-0.005,0.004l-1.145,0l0,-0.004l-0.342,0l0,0.004l-1.276,0l0.002,-0.004l-0.341,0l-0.002,0.004l-1.145,0l-0.001,-0.004l-0.343,0l0,0.004l-1.272,0l0,-0.004l-0.346,0l0,0.004l-1.143,0l0,-0.004l-0.34,0l0,0.004l-1.277,0l0,-0.004l-0.341,0l0,0.004l-1.147,0l0,-0.004l-0.341,0l0,0.004l-1.278,0l0.005,-0.004l-0.344,0l0,0.004l-1.147,0l0,-0.004l-0.34,0l0,0.004l-1.275,0l0,-0.004l-0.342,0l-0.005,0.004l-1.141,0l-0.002,-0.004l-0.342,0l0,0.004l-0.399,0l0,-3.129l0,-0.877l0.577,0l0,-0.355l0,-0.807l0,-0.367l0,-0.804l0,-0.194l-0.262,0l-0.404,0l-0.456,0l-1.786,0l-0.457,0l-0.403,0l-0.458,0l-1.788,0l-0.455,0l-0.405,0l-0.461,0l-1.784,0l-0.459,0l-0.401,0l-0.463,0l-1.331,0l0,2.527l0.575,0l0,4.006l-1.05,0l0,-0.004l-0.341,0l0,0.004l-0.772,0l-0.568,0.903l-0.54,0.871l-0.562,0.886l0,-0.002l-0.146,0.242l-0.29,0.455l-0.161,0.258l0.001,0.003l-0.284,0.452l0,-0.001l-0.148,0.237l0,0.003l-0.442,0.705l3.862,0l0,17.312l-1.815,0l-0.001,-0.004l-0.553,0l0.003,0.004l-1.746,0l0.003,-0.004l-0.548,0l-0.004,0.004l-2.127,0l-0.001,-0.004l-0.549,0l0.006,0.004l-1.748,0l0.004,-0.004l-0.55,0l-0.003,0.004l-2.121,0l-0.003,-0.004l-0.554,0l0.003,0.004l-1.743,0l0.003,-0.004l-0.55,0l-0.004,0.004l-2.124,0l-0.002,-0.004l-0.551,0l0.001,0.004l-1.74,0l0.004,-0.004l-0.553,0l-0.004,0.004l-2.122,0l-0.002,-0.004l-0.551,0l0.002,0.004l-1.706,0l0,-20.396l0,-1.563l0.015,0.006l0.271,0.167l1.635,1.003l0.092,-0.213l0.16,-0.372l0,-0.004l0.418,-0.981l0.103,-0.236l0,-0.001l0.467,-1.093l-0.213,-0.136l0.006,0.003l-0.668,-0.43l0.006,0.004l-1.881,-1.199l0,-0.004l-0.411,-0.258l-0.631,-0.404l-0.247,-0.159l-15.691,-10.033l-0.011,-0.019l-0.004,0.008l-0.003,0l-0.766,0.489l-0.38,0.247l-0.688,0.442l-0.005,0l-0.443,0.285l-1.218,0.779l0,-0.002l-0.875,0.561l-1.656,1.058l-0.379,0.239l0.002,0l-1.078,0.691l-0.002,0l-0.996,0.637l-1.719,1.099l-0.44,0.282l-0.592,0.376l-0.381,0.246l-5.102,3.261l-0.261,0.167l0,0.001l-1.806,1.152l0.004,-0.002l-0.791,0.507l0.001,-0.002l-0.164,0.106l0.541,1.276l0.114,0.273l0.579,1.353l1.925,-1.176l0,21.965l-1.676,0l0.006,-0.004l-0.552,0l-0.003,0.004l-2.124,0l-0.008,-0.004l-0.545,0l0.001,0.004l-1.745,0l0.004,-0.004l-0.552,0l-0.004,0.004l-2.123,0l0,-0.004l-0.556,0l0.004,0.004l-1.746,0l0.004,-0.004l-0.548,0l-0.004,0.004l-2.127,0l0,-0.004l-0.552,0l0.002,0.004l-1.746,0l0.003,-0.004l-0.551,0l-0.005,0.004l-2.126,0l-0.001,-0.004l-0.552,0l0.002,0.004l-1.745,0l0.004,-0.004l-0.55,0l-0.005,0.004l-2.125,0l-0.005,-0.004l-0.548,0l0.003,0.004l-0.175,0l-0.525,0.815l0,-3.123l0,-1.535l3.867,0l-0.445,-0.704l-0.148,-0.24l-0.282,-0.447l0,-0.004l-0.163,-0.257l-0.291,-0.456l0.005,-0.002l-0.15,-0.238l-0.56,-0.892l-0.726,-1.155l-0.385,-0.613l-0.77,0l-0.344,0l-1.046,0l0,-3.133l0,-0.877l0.573,0l0,-0.395l0,-0.364l0,-0.811l0,-0.366l0,-0.59l-1.333,0l-0.46,0l-0.404,0l-0.459,0l-1.782,0l-0.458,0l-0.405,0l-0.462,0l-1.784,0l-0.459,0l-0.401,0l-0.458,0l-1.784,0l-0.458,0l-0.405,0l-0.259,0l0,2.526l0.574,0l0,4.01l-0.399,0l-0.341,0l-1.144,0l-0.003,0l-0.343,0l0.002,0l-1.275,0l-0.344,0l-1.144,0l-0.002,0l-0.34,0l-1.274,0l-0.341,0l-1.149,0l-0.339,0l-1.277,0l-0.34,0l-1.146,0l-0.341,0l-1.275,0l-0.342,0l-0.002,0l-1.146,0l-0.344,0l0.005,0l-1.279,0l-0.34,0l-1.146,0l-0.003,0l-0.343,0l-1.274,0l-0.338,0l-0.003,0l-1.146,0l-0.342,0l-1.275,0l-0.342,0l-0.002,0l-1.141,0l-0.004,0l-0.34,0l-1.278,0l-0.337,0l-0.004,0l-1.146,0l-0.326,0l0,-1.998l0,-1.351l2.596,1.018l1.668,-2.508l-7.945,-3.251l0,-7.46l0,-0.794l0.67,0l0,-2.193l-10.729,0l0,2.193l0.674,0l0,4.414l-9.311,-3.808l-0.012,-0.018l-0.004,0.006l-0.003,0l-26.655,10.907l1.673,2.509l2.596,-1.021l0,23.992l-18.773,-15.821l-0.003,-0.004l0,0.004l-0.005,-0.009l-0.014,0.021l-9.046,7.622l0,-0.953l0,-0.898l0.766,0l0,-2.482l-12.14,0l0,2.482l0.764,0l0,10.795l-4.137,3.491l1.888,2.833l2.936,-2.517l0,147.561l410.276,0.023Z" style="fill:url(#_Linear1);"/><path d="M424.529,133.781l0.005,0.008l-2.824,0l0.002,-0.008l-0.893,0l-0.003,0.008l-3.438,0l-0.005,-0.008l-0.894,0l0.007,0.008l-2.831,0l0.008,-0.008l-0.889,0l-0.003,0.008l-3.44,0l-0.007,-0.008l-0.892,0l0.006,0.008l-2.711,0l0,-35.608l3.117,1.911l0.935,-2.196l0.188,-0.442l0.874,-2.066l-0.268,-0.175l0.005,0l-1.284,-0.819l0.009,0.004l-2.93,-1.87l0.006,-0.003l-0.418,-0.266l-8.267,-5.289l-0.612,-0.394l-0.959,-0.612l-0.714,-0.459l-2.783,-1.779l-1.615,-1.035l-1.74,-1.116l-0.612,-0.391l-2.682,-1.716l-1.414,-0.906l0.002,0.002l-1.98,-1.268l-0.717,-0.459l-1.12,-0.715l-0.613,-0.397l-1.243,-0.792l0,-0.004l-0.002,0l-0.006,-0.011l-0.018,0.034l-25.394,16.258l-0.408,0.254l0.004,0.004l-1.024,0.652l-0.666,0.424l0.003,0l-3.042,1.95l0.008,-0.008l-1.084,0.693l0.007,-0.002l-0.34,0.219l0.754,1.777l0.165,0.381l0.675,1.592l0,0.001l0.26,0.609l0.149,0.345l2.649,-1.629l0.438,-0.264l-0.003,0l0.027,-0.016l0,35.597l-2.763,0l0.005,-0.008l-0.891,0l-0.008,0.008l-3.433,0l-0.002,-0.008l-0.898,0l0.006,0.008l-2.821,0l0.006,-0.008l-0.896,0l-0.002,0.008l-3.439,0l-0.005,-0.008l-0.889,0l0.003,0.008l-2.823,0l0.005,-0.008l-0.893,0l-0.004,0.008l-3.432,0l-0.012,-0.008l-0.885,0l0.005,0.008l-2.825,0l0.006,-0.008l-0.888,0l-0.005,0.008l-3.437,0l-0.01,-0.008l-0.886,0l0.004,0.008l-2.824,0l0.005,-0.008l-0.897,0l-0.003,0.008l-2.94,0l0,-28.065l6.257,0l-0.714,-1.145l0,-0.001l-0.247,-0.384l0,0.001l-0.454,-0.733l0.002,-0.004l-0.265,-0.416l-0.464,-0.74l0,-0.002l-0.242,-0.389l-0.904,-1.441l0.003,0.004l-0.883,-1.404l-0.918,-1.469l-1.247,0l0,-0.003l-0.559,0l-0.003,0.003l-1.69,0l0,-6.493l0.928,0l0,-4.099l-19.055,0l0,4.099l0.93,0l0,6.493l-0.645,0l0,-0.003l-0.555,0l-0.001,0.003l-1.853,0l-0.004,-0.003l-0.551,0l0,0.003l-2.066,0l0,-0.003l-0.55,0l0,0.003l-1.855,0l0,-0.003l-0.555,0l0.003,0.003l-2.07,0l0,-0.003l-0.546,0l0,0.003l-1.857,0l0,-0.003l-0.552,0l0,0.003l-2.063,0l0,-0.003l-0.557,0l0,0.003l-1.852,0l0,-0.003l-0.555,0l0.002,0.003l-2.063,0l0,-0.003l-0.556,0l-0.001,0.003l-1.854,0l-0.001,-0.003l-0.551,0l0,0.003l-2.069,0l0.004,-0.003l-0.55,0l0,0.003l-1.859,0l-0.004,-0.003l-0.551,0l0,0.003l-2.065,0l0.003,-0.003l-0.554,0l-0.005,0.003l-1.852,0l0,-0.003l-0.554,0l0,0.003l-2.065,0l0,-0.003l-0.556,0l0,0.003l-1.851,0l-0.002,-0.003l-0.557,0l0.005,0.003l-2.065,0l0,-0.003l-0.553,0l0,0.003l-1.857,0l0,-0.003l-0.549,0l0,0.003l-1.153,0l-0.552,0.878l-1.209,1.921l0.007,-0.001l-0.971,1.55l-0.001,0l-0.246,0.389l0,0.001l-0.49,0.781l-0.261,0.415l0.003,0.001l-0.442,0.706l-0.003,-0.002l-0.239,0.383l-0.686,1.101l6.255,0l0,25.601l-30.709,-25.916l-0.004,-0.003l0,0.003l-0.013,-0.013l-0.022,0.033l-14.641,12.357l0,-3.005l1.24,0l0,-4.026l-17.285,0l0,-18.584l4.208,1.651l2.698,-4.065l-12.87,-5.272l0,-13.374l1.093,0l0,-3.561l-17.375,0l0,3.561l1.095,0l0,7.152l-15.075,-6.174l-0.015,-0.025l-0.009,0.006l-0.002,0l-0.002,0.002l-43.15,17.679l2.706,4.067l4.201,-1.654l0,21.165l-0.881,-1.378l-0.26,0l0.007,-0.008l-0.896,0l-0.004,0.008l-3.433,0l-0.009,-0.008l-0.894,0l0.004,0.008l-2.822,0l0.007,-0.008l-0.888,0l-0.01,0.008l-3.435,0l-0.01,-0.008l-0.886,0l0.006,0.008l-2.823,0l0.003,-0.008l-0.885,0l-0.009,0.008l-3.434,0l-0.005,-0.008l-0.896,0l0.007,0.008l-2.822,0l0.001,-0.008l-0.889,0l-0.005,0.008l-3.438,0l-0.004,-0.008l-0.894,0l0.006,0.008l-2.82,0l0.005,-0.008l-0.896,0l-0.003,0.008l-3.431,0l-0.007,-0.008l-0.896,0l0.005,0.008l-2.756,0l0,-35.6l0.02,0.017l-0.003,0l0.42,0.254l2.67,1.641l0.072,-0.168l0.336,-0.785l0.829,-1.948l0.011,-0.026l0.758,-1.78l-0.826,-0.527l-0.593,-0.384l0.011,0.009l-4.733,-3.029l-0.073,-0.048l-7.489,-4.79l-0.028,-0.02l-0.966,-0.617l-0.469,-0.301l-6.371,-4.078l-0.092,-0.057l-6.584,-4.213l0.001,0l-0.39,-0.252l-1.456,-0.93l0,-0.001l-0.381,-0.244l-1.5,-0.961l-0.017,-0.032l-0.01,0.008l0,0.004l-1.243,0.793l-1.734,1.111l-0.379,0.245l-6.409,4.101l-0.487,0.315l-1.866,1.196l-0.002,0l-0.528,0.338l-4.274,2.735l-0.31,0.197l-0.955,0.615l-0.329,0.208l-6.642,4.253l-0.627,0.4l-1.386,0.887l-0.315,0.202l0.004,0l-2.924,1.87l0.006,-0.005l-1.283,0.822l0.009,-0.005l-0.276,0.178l1.62,3.804l-0.004,0l0.335,0.786l0.047,0.114l2.425,-1.488l0.692,-0.422l0,35.608l-2.711,0l0.004,-0.008l-0.887,0l-0.008,0.008l-3.441,0l-0.006,-0.008l-0.888,0l0.006,0.008l-2.826,0l0.005,-0.008l-0.899,0l0,0.008l-3.438,0l-0.005,-0.008l-0.892,0l0.006,0.008l-2.825,0l0.003,-0.008l-0.891,0l-0.004,0.008l-1.345,0l0,102.773l425.147,-0.021l0,-80.922l-0.618,0Z" style="fill:url(#_Linear2);"/><text x="145.485px" y="177.435px" style="font-family:'HelveticaNeue', 'Helvetica Neue';font-size:16px;fill:#fff;">Letting Application</text><g><text x="170.903px" y="154.795px" style="font-family:'AvenirNextCondensed-Regular', 'Avenir Next Condensed', sans-serif;font-stretch:condensed;font-size:20px;fill:#fff;">F &amp; L</text><text x="209.283px" y="154.795px" style="font-family:'AvenirNextCondensed-Regular', 'Avenir Next Condensed', sans-serif;font-stretch:condensed;font-size:20px;fill:#fff;">Adams</text></g></g><defs><linearGradient id="_Linear1" x1="0" y1="0" x2="1" y2="0" gradientUnits="userSpaceOnUse" gradientTransform="matrix(-9.3422e-06,-213.725,213.725,-9.3422e-06,210.438,213.724)"><stop offset="0" style="stop-color:#007c96;stop-opacity:1"/><stop offset="0.2" style="stop-color:#00809b;stop-opacity:1"/><stop offset="0.7" style="stop-color:#60c0da;stop-opacity:1"/><stop offset="1" style="stop-color:#78d0e9;stop-opacity:1"/></linearGradient><linearGradient id="_Linear2" x1="0" y1="0" x2="1" y2="0" gradientUnits="userSpaceOnUse" gradientTransform="matrix(-7.06562e-06,-161.643,161.643,-7.06562e-06,212.573,214.724)"><stop offset="0" style="stop-color:#007c96;stop-opacity:1"/><stop offset="0.4" style="stop-color:#4cb5cf;stop-opacity:1"/><stop offset="0.9" style="stop-color:#77d0e9;stop-opacity:1"/><stop offset="1" style="stop-color:#78d0e9;stop-opacity:1"/></linearGradient></defs></svg>
