<?xml version="1.0" encoding="UTF-8" standalone="no"?><!DOCTYPE svg PUBLIC "-//W3C//DTD SVG 1.1//EN" "http://www.w3.org/Graphics/SVG/1.1/DTD/svg11.dtd"><svg width="100%" height="100%" viewBox="0 0 207 101" version="1.1" xmlns="http://www.w3.org/2000/svg" xmlns:xlink="http://www.w3.org/1999/xlink" xml:space="preserve" xmlns:serif="http://www.serif.com/" style="fill-rule:evenodd;clip-rule:evenodd;stroke-linejoin:round;stroke-miterlimit:2;"><g id="L"><path d="M140.396,37.3l0,62l-14,0l0,-62l14,0Z" style="fill:#180080;"/><rect x="126.9" y="88.1" width="38" height="12" style="fill:#180080;"/></g><text x="89.439px" y="99.068px" style="font-family:'Georgia-Bold', 'Georgia', serif;font-weight:700;font-size:60.397px;fill:#180080;">&amp;</text><g id="F"><path d="M77.888,37.1l0,62l-14,0l0,-62l14,0Z" style="fill:#180080;"/><rect x="64.282" y="37.1" width="30" height="12" style="fill:#180080;"/><rect x="65.782" y="60.9" width="22" height="12" style="fill:#180080;"/></g><g id="Roof"><g id="Right"><path d="M195.076,58.6l11.2,15.6l-22.4,0l11.2,-15.6Z" style="fill:#180080;"/><path d="M145.686,42.308l24.994,0.546l-0.24,10.996l-24.995,-0.546l0.241,-10.996Z" style="fill:#180080;"/><path d="M198.676,63.693l-43.85,-63.693l-14.826,10.207l43.849,63.693l14.827,-10.207Z" style="fill:#180080;"/></g><rect id="cross-piece" serif:id="cross piece" x="51.863" y="0" width="102.785" height="18" style="fill:#180080;"/><g id="Left"><path d="M58.284,42.359l-24.994,0.545l0.24,10.996l24.994,-0.546l-0.24,-10.995Z" style="fill:#180080;"/><path d="M7.6,63.693l43.849,-63.693l14.827,10.207l-43.85,63.693l-14.826,-10.207Z" style="fill:#180080;"/><path d="M11.2,58.6l-11.2,15.6l22.4,0l-11.2,-15.6Z" style="fill:#180080;"/></g></g></svg>